<?xml version="1.0" encoding="utf-8"?>
<!-- Generator: Adobe Illustrator 16.0.0, SVG Export Plug-In . SVG Version: 6.00 Build 0)  -->
<!DOCTYPE svg PUBLIC "-//W3C//DTD SVG 1.1//EN" "http://www.w3.org/Graphics/SVG/1.1/DTD/svg11.dtd">
<svg version="1.1" id="Layer_1" xmlns="http://www.w3.org/2000/svg" xmlns:xlink="http://www.w3.org/1999/xlink" x="0px" y="0px"
	 width="60px" height="60px" viewBox="347.01 40.865 60 60" enable-background="new 347.01 40.865 60 60" xml:space="preserve">
<title></title>
<g>
	<path fill="#103159" d="M378.957,47.098c-0.556,0-1.002-0.445-1.002-1.001v-2.116c0-0.556-0.444-1.001-1.001-1.001
		c-0.557,0-1.001,0.445-1.001,1.001v2.116c0,0.557-0.445,1.001-1.002,1.001c-0.557,0-1.001-0.445-1.001-1.001v-2.116
		c0-1.669,1.335-3.116,3.117-3.116c1.781,0,3.116,1.335,3.116,3.116v2.116C379.959,46.542,379.514,46.987,378.957,47.098z"/>
</g>
<g>
	<path fill="#103159" d="M395.544,51.218c-0.557,0-1.002-0.446-1.002-1.002V48.1c0-0.556-0.445-1.002-1.002-1.002
		s-1.002,0.446-1.002,1.002l0,0v2.115c0,0.556-0.445,1.002-1.002,1.002s-1.002-0.446-1.002-1.002V48.1
		c0-1.67,1.336-3.117,3.117-3.117c1.67,0,3.117,1.335,3.117,3.117v2.115C396.546,50.772,396.101,51.218,395.544,51.218z"/>
</g>
<g>
	<path fill="#F48900" d="M400.664,59.455h-14.471l1.002-10.352h12.467L400.664,59.455z"/>
</g>
<g>
	<path fill="#FFB038" d="M396.546,59.455h-14.472l1.002-10.352h12.356L396.546,59.455z"/>
</g>
<g>
	<path fill="#103159" d="M391.425,53.221c-0.556,0-1.002-0.445-1.002-1.002V48.1c0-0.556-0.445-1.002-1.001-1.002
		c-0.558,0-1.003,0.446-1.003,1.002v4.119c0,0.557-0.444,1.002-1.002,1.002c-0.556,0-1.001-0.445-1.001-1.002V48.1
		c0-1.67,1.336-3.117,3.116-3.117c1.781,0,3.117,1.335,3.117,3.117v4.119C392.428,52.776,391.981,53.221,391.425,53.221z"/>
</g>
<g>
	<path fill="#F48900" d="M384.189,57.34h-14.471l1.002-12.356h12.356L384.189,57.34z"/>
</g>
<g>
	<path fill="#1AA1FC" d="M362.482,57.34l6.234,20.705l33.061-2.115l4.119-18.59H362.482z"/>
</g>
<g>
	<path fill="#FFB038" d="M380.071,57.34H365.6l1.002-12.356h12.355L380.071,57.34z"/>
</g>
<g>
	<path fill="#103159" d="M374.838,49.103c-0.556,0-1.002-0.446-1.002-1.002v-4.119c0-0.556-0.445-1.001-1.001-1.001
		s-1.002,0.445-1.002,1.001V48.1c0,0.557-0.445,1.002-1.001,1.002s-1.002-0.446-1.002-1.002v-4.119c0-1.669,1.336-3.116,3.117-3.116
		c1.781,0,3.117,1.335,3.117,3.116l0,0V48.1C375.841,48.657,375.395,49.103,374.838,49.103z"/>
</g>
<g>
	<circle fill="#EC8B00" cx="368.605" cy="94.631" r="6.234"/>
</g>
<g>
	<circle fill="#FFFFFF" cx="368.605" cy="94.631" r="2.115"/>
</g>
<g>
	<circle fill="#EC8B00" cx="400.664" cy="94.631" r="6.234"/>
</g>
<g>
	<circle fill="#FFFFFF" cx="400.664" cy="94.631" r="2.115"/>
</g>
<g>
	<path fill="#005EB8" d="M406.676,56.783c-0.223-0.223-0.445-0.334-0.779-0.334h-41.41c-0.556,0-1.002,0.446-1.002,1.002
		c0,0.557,0.446,1.002,1.002,1.002h6.345l0.891,4.118h-6.234c-0.557,0-1.002,0.445-1.002,1.002c0,0.556,0.445,1.001,1.002,1.001
		h6.679l1.335,6.233h-4.897c-0.557,0-1.002,0.446-1.002,1.001c0,0.558,0.445,1.003,1.002,1.003h5.343l0.89,3.896l-4.118,0.335
		c-0.557,0-1.002,0.556-0.891,1.112c0,0.557,0.445,0.891,1.002,0.891h0.111L402,76.931c0.445,0,0.779-0.334,0.891-0.779
		l4.008-18.589C406.898,57.34,406.898,57.006,406.676,56.783L406.676,56.783z M403.67,62.572h-5.12l0.891-4.118h5.12L403.67,62.572z
		 M401.777,70.809h-5.121l1.337-6.233h5.12L401.777,70.809z M389.311,75.818l0.333-2.894h4.453l-0.557,2.561L389.311,75.818z
		 M383.076,76.264l-0.334-3.34h4.898l-0.334,3.005l0,0L383.076,76.264z M397.325,58.453l-0.891,4.118h-5.565l0.444-4.118H397.325z
		 M388.754,62.572h-7.124l-0.446-4.118h8.015L388.754,62.572z M388.531,64.687l-0.668,6.233h-5.344l-0.668-6.233H388.531z
		 M389.867,70.809l0.667-6.233h5.343l-1.335,6.233H389.867z M373.057,58.453h6.012l0.444,4.118h-5.677L373.057,58.453z
		 M374.282,64.575h5.454l0.668,6.233h-4.787L374.282,64.575z M376.063,72.925h4.564l0.333,3.45l-4.118,0.223L376.063,72.925z
		 M395.655,75.374l0.557-2.449h5.12l-0.445,2.114L395.655,75.374z"/>
</g>
<g>
	<path fill="#0F8ADA" d="M370.72,84.278v-6.233l-8.905-31.614c-0.223-0.891-1.113-1.558-2.004-1.558h-10.798
		c-1.113,0.111-2.003,1.001-2.003,2.226c0,1.113,0.891,1.892,2.003,2.004h7.792c0.891,0,1.781,0.556,2.003,1.446l7.792,27.496
		v10.353h38.293c1.112-0.111,2.004-1.002,2.004-2.227c0-1.113-0.892-1.893-2.004-2.004L370.72,84.278z"/>
</g>
<g>
	<path fill="#EC8B00" d="M355.247,44.984v4.119h-6.234c-1.113-0.112-2.003-1.002-2.003-2.227c0-1.113,0.891-1.893,2.003-2.003
		L355.247,44.984z"/>
</g>
</svg>
