<?xml version="1.0" ?><svg xmlns="http://www.w3.org/2000/svg" xmlns:xlink="http://www.w3.org/1999/xlink" version="1.1" id="Layer_1" viewBox="0 0 100 100" style="enable-background:new 0 0 100 100;" xml:space="preserve"><style type="text/css">
	.st0{fill:#EEEEEE;}
	.st1{fill:#FFFFFF;}
	.st2{fill:#F2EDED;}
	.st3{fill:#103159;}
	.st4{fill:#F48900;}
	.st5{fill:#FFB038;}
	.st6{fill:#1AA1FC;}
	.st7{fill:#EC8B00;}
	.st8{fill:#005EB8;}
	.st9{fill:#0F8ADA;}
</style><g><title/><g id="Rectangle-290"><g id="path-1"><path class="st0" d="M48.8,2.3h2.3c25.7,0,46.5,20.8,46.5,46.5c0,0,0,0,0,0v2.3c0,25.7-20.8,46.5-46.5,46.5c0,0,0,0,0,0h-2.3     c-25.7,0-46.5-20.8-46.5-46.5c0,0,0,0,0,0v-2.3C2.3,23.2,23.1,2.3,48.8,2.3C48.8,2.3,48.8,2.3,48.8,2.3z"/><path class="st1" d="M48.8,100c-13,0-25.3-5.1-34.5-14.3C5.1,76.5,0,64.2,0,51.2v-2.4c0-13,5.1-25.3,14.3-34.5     C23.5,5.1,35.8,0,48.8,0h2.4c0,0,0,0,0,0c13,0,25.3,5.1,34.5,14.3c9.2,9.2,14.3,21.5,14.3,34.5v2.4c0,13-5.1,25.3-14.3,34.5     C76.5,94.9,64.2,100,51.2,100H48.8C48.8,100,48.8,100,48.8,100z M48.8,4.7C37,4.7,25.9,9.3,17.6,17.6C9.2,25.9,4.6,37,4.7,48.8     v2.3c0,11.8,4.6,22.9,12.9,31.3c8.3,8.3,19.4,12.9,31.2,12.9c0,0,0,0,0,0h2.3c24.4,0,44.2-19.8,44.2-44.2v-2.3     c0-24.4-19.8-44.2-44.2-44.2c0,0,0,0,0,0H48.8z"/></g><g id="path-1-2"><path class="st2" d="M48.8,98.3c-12.6,0-24.4-4.9-33.3-13.8C6.6,75.6,1.7,63.8,1.7,51.2v-2.4c0-12.6,4.9-24.4,13.8-33.3     C24.4,6.6,36.2,1.7,48.8,1.7h2.4c0,0,0,0,0,0c26,0,47.1,21.1,47.1,47.1v2.4c0,26-21.1,47.1-47.1,47.1H48.8     C48.8,98.3,48.8,98.3,48.8,98.3z M48.8,2.9C23.5,2.9,2.9,23.5,2.9,48.8v2.3c0,25.3,20.6,45.9,45.9,45.9c0,0,0,0,0,0h2.3     c25.3,0,45.9-20.6,45.9-45.9v-2.3c0-25.3-20.6-45.9-45.9-45.9c0,0,0,0,0,0H48.8z"/></g></g><g><path class="st3" d="M50.4,29.6c-0.5,0-0.9-0.4-0.9-0.9v-1.9c0-0.5-0.4-0.9-0.9-0.9c-0.5,0-0.9,0.4-0.9,0.9v1.9    c0,0.5-0.4,0.9-0.9,0.9c-0.5,0-0.9-0.4-0.9-0.9v-1.9c0-1.5,1.2-2.8,2.8-2.8s2.8,1.2,2.8,2.8v1.9C51.3,29.1,50.9,29.5,50.4,29.6z"/></g><g><path class="st3" d="M65.3,33.3c-0.5,0-0.9-0.4-0.9-0.9v-1.9c0-0.5-0.4-0.9-0.9-0.9c-0.5,0-0.9,0.4-0.9,0.9c0,0,0,0,0,0v1.9    c0,0.5-0.4,0.9-0.9,0.9c-0.5,0-0.9-0.4-0.9-0.9v-1.9c0-1.5,1.2-2.8,2.8-2.8c1.5,0,2.8,1.2,2.8,2.8v1.9    C66.2,32.9,65.8,33.3,65.3,33.3z"/></g><g><path class="st4" d="M69.9,40.7h-13l0.9-9.3H69L69.9,40.7z"/></g><g><path class="st5" d="M66.2,40.7h-13l0.9-9.3h11.1L66.2,40.7z"/></g><g><path class="st3" d="M61.6,35.1c-0.5,0-0.9-0.4-0.9-0.9v-3.7c0-0.5-0.4-0.9-0.9-0.9c-0.5,0-0.9,0.4-0.9,0.9v3.7    c0,0.5-0.4,0.9-0.9,0.9c-0.5,0-0.9-0.4-0.9-0.9v-3.7c0-1.5,1.2-2.8,2.8-2.8s2.8,1.2,2.8,2.8v3.7C62.5,34.7,62.1,35.1,61.6,35.1z"/></g><g><path class="st4" d="M55.1,38.8h-13L43,27.7h11.1L55.1,38.8z"/></g><g><path class="st6" d="M35.6,38.8l5.6,18.6l29.7-1.9l3.7-16.7L35.6,38.8z"/></g><g><path class="st5" d="M51.4,38.8h-13l0.9-11.1h11.1L51.4,38.8z"/></g><g><path class="st3" d="M46.7,31.4c-0.5,0-0.9-0.4-0.9-0.9v-3.7c0-0.5-0.4-0.9-0.9-0.9s-0.9,0.4-0.9,0.9v3.7c0,0.5-0.4,0.9-0.9,0.9    c-0.5,0-0.9-0.4-0.9-0.9v-3.7c0-1.5,1.2-2.8,2.8-2.8s2.8,1.2,2.8,2.8l0,0v3.7C47.6,31,47.2,31.4,46.7,31.4z"/></g><g><circle class="st7" cx="41.1" cy="72.3" r="5.6"/></g><g><circle class="st1" cx="41.1" cy="72.3" r="1.9"/></g><g><circle class="st7" cx="69.9" cy="72.3" r="5.6"/></g><g><circle class="st1" cx="69.9" cy="72.3" r="1.9"/></g><g><path class="st8" d="M75.3,38.3c-0.2-0.2-0.4-0.3-0.7-0.3H37.4c-0.5,0-0.9,0.4-0.9,0.9c0,0.5,0.4,0.9,0.9,0.9h5.7l0.8,3.7h-5.6    c-0.5,0-0.9,0.4-0.9,0.9c0,0.5,0.4,0.9,0.9,0.9h6l1.2,5.6h-4.4c-0.5,0-0.9,0.4-0.9,0.9c0,0.5,0.4,0.9,0.9,0.9h4.8l0.8,3.5L43,56.5    c-0.5,0-0.9,0.5-0.8,1c0,0.5,0.4,0.8,0.9,0.8h0.1l27.9-1.9c0.4,0,0.7-0.3,0.8-0.7L75.5,39C75.5,38.8,75.5,38.5,75.3,38.3    L75.3,38.3z M72.6,43.5H68l0.8-3.7h4.6L72.6,43.5z M70.9,50.9h-4.6l1.2-5.6h4.6L70.9,50.9z M59.7,55.4l0.3-2.6h4l-0.5,2.3    L59.7,55.4z M54.1,55.8l-0.3-3h4.4l-0.3,2.7c0,0,0,0,0,0L54.1,55.8z M66.9,39.8l-0.8,3.7h-5l0.4-3.7H66.9z M59.2,43.5h-6.4    l-0.4-3.7h7.2L59.2,43.5z M59,45.4l-0.6,5.6h-4.8L53,45.4H59z M60.2,50.9l0.6-5.6h4.8l-1.2,5.6H60.2z M45.1,39.8h5.4l0.4,3.7h-5.1    L45.1,39.8z M46.2,45.3h4.9l0.6,5.6h-4.3L46.2,45.3z M47.8,52.8h4.1l0.3,3.1l-3.7,0.2L47.8,52.8z M65.4,55l0.5-2.2h4.6l-0.4,1.9    L65.4,55z"/></g><g><path class="st9" d="M43,63v-5.6l-8-28.4c-0.2-0.8-1-1.4-1.8-1.4h-9.7c-1,0.1-1.8,0.9-1.8,2c0,1,0.8,1.7,1.8,1.8h7    c0.8,0,1.6,0.5,1.8,1.3l7,24.7v9.3h34.4c1-0.1,1.8-0.9,1.8-2c0-1-0.8-1.7-1.8-1.8L43,63z"/></g><g><path class="st7" d="M29.1,27.7v3.7h-5.6c-1-0.1-1.8-0.9-1.8-2c0-1,0.8-1.7,1.8-1.8L29.1,27.7z"/></g></g></svg>